<svg width="611" height="388" viewBox="0 0 611 388" fill="none" xmlns="http://www.w3.org/2000/svg">
<path d="M1395.53 -224.473L1391.19 -200.266C1385.91 -175.109 1376.3 -125.745 1347.76 -97.207C1318.27 -67.7183 1268.91 -58.1048 1209.61 -58.429C1151.26 -59.7044 1082.02 -69.9663 1012.78 -80.2282C943.538 -90.49 875.25 -101.703 870.605 -47.3702C865.96 6.96266 925.911 125.89 936.172 195.13C947.385 263.418 907.959 282.969 868.533 302.52C829.106 322.071 790.631 340.671 736.298 345.316C681.965 349.96 612.726 339.698 584.188 368.236C554.7 397.725 564.961 466.964 550.379 511.359C535.797 555.755 497.322 574.354 482.74 618.75C468.157 663.145 478.419 732.384 439.944 750.984C400.517 770.535 311.403 740.398 271.976 759.949C233.501 778.549 243.763 847.788 248.418 882.884M248.418 882.884L254.025 917.028M248.418 882.884L285.644 939.614M248.418 882.884L320.691 972.055M248.418 882.884L343.88 998.554M1373.99 -246.004L1369.66 -221.798C1364.38 -196.64 1354.77 -147.276 1326.23 -118.739C1296.74 -89.2498 1247.38 -79.6364 1188.07 -79.9606C1129.72 -81.236 1060.48 -91.4979 991.246 -101.76C922.006 -112.022 853.718 -123.235 849.073 -68.9018C844.429 -14.5689 904.379 104.359 914.641 173.598C925.854 241.886 886.427 261.437 847.001 280.988C807.575 300.54 769.1 319.139 714.767 323.784C660.434 328.429 591.194 318.167 562.657 346.704C533.168 376.193 543.43 445.433 528.848 489.828C514.265 534.223 475.79 552.823 461.208 597.218C446.626 641.613 456.887 710.853 418.412 729.453C378.986 749.004 289.871 718.866 250.445 738.418C211.97 757.017 222.232 826.257 226.887 861.352L232.493 895.496M1347.49 -272.505L1343.16 -248.298C1337.88 -223.141 1328.27 -173.776 1299.73 -145.239C1270.24 -115.75 1220.88 -106.137 1161.57 -106.461C1103.22 -107.736 1033.98 -117.998 964.745 -128.26C895.506 -138.522 827.218 -149.735 822.573 -95.4022C817.928 -41.0693 877.879 77.8584 888.14 147.098C899.354 215.386 859.927 234.937 820.501 254.488C781.074 274.039 742.599 292.639 688.266 297.284C633.933 301.928 564.694 291.666 536.156 320.204C506.668 349.693 516.929 418.932 502.347 463.327C487.765 507.722 449.29 526.322 434.707 570.718C420.125 615.113 430.387 684.352 391.912 702.952C352.485 722.503 263.371 692.366 223.944 711.917C185.469 730.517 195.731 799.756 200.386 834.852L205.993 868.996M1322.65 -297.349L1318.32 -273.142C1313.04 -247.985 1303.42 -198.621 1274.88 -170.083C1245.4 -140.594 1196.03 -130.981 1136.73 -131.305C1078.38 -132.581 1009.14 -142.842 939.901 -153.104C870.662 -163.366 802.374 -174.579 797.729 -120.246C793.084 -65.9135 853.034 53.0142 863.296 122.254C874.509 190.542 835.083 210.093 795.657 229.644C756.23 249.195 717.755 267.795 663.422 272.439C609.089 277.084 539.85 266.822 511.312 295.36C481.823 324.849 492.085 394.088 477.503 438.483C462.921 482.878 424.446 501.478 409.863 545.873C395.281 590.269 405.543 659.508 367.068 678.108C327.641 697.659 238.527 667.522 199.1 687.073C160.625 705.673 170.887 774.912 175.542 810.008L181.149 844.152M1299.46 -320.537L1295.13 -296.33C1289.85 -271.173 1280.23 -221.809 1251.7 -193.271C1222.21 -163.782 1172.84 -154.169 1113.54 -154.493C1055.19 -155.769 985.953 -166.03 916.713 -176.292C847.474 -186.554 779.186 -197.767 774.541 -143.434C769.897 -89.1012 829.847 29.8263 840.108 99.0657C851.321 167.354 811.895 186.905 772.469 206.456C733.042 226.007 694.567 244.607 640.234 249.252C585.901 253.896 516.662 243.634 488.124 272.172C458.636 301.661 468.897 370.9 454.315 415.295C439.733 459.691 401.258 478.29 386.675 522.686C372.093 567.081 382.355 636.32 343.88 654.92C304.453 674.471 215.339 644.334 175.912 663.885C137.437 682.485 147.699 751.724 152.354 786.82L157.961 820.964M1276.27 -343.725L1271.94 -319.518C1266.66 -294.36 1257.05 -244.996 1228.51 -216.459C1199.02 -186.97 1149.66 -177.357 1090.35 -177.681C1032 -178.956 962.765 -189.218 893.525 -199.48C824.286 -209.742 755.998 -220.955 751.353 -166.622C746.709 -112.289 806.659 6.63849 816.921 75.8779C828.134 144.166 788.707 163.717 749.281 183.268C709.854 202.819 671.379 221.419 617.046 226.064C562.713 230.708 493.474 220.447 464.937 248.984C435.448 278.473 445.71 347.712 431.127 392.107C416.545 436.503 378.07 455.103 363.488 499.498C348.905 543.893 359.167 613.132 320.692 631.732C281.266 651.283 192.151 621.146 152.724 640.697C114.249 659.297 124.511 728.537 129.167 763.632L134.773 797.776M1251.43 -368.569L1247.1 -344.362C1241.82 -319.205 1232.2 -269.841 1203.66 -241.303C1174.18 -211.814 1124.81 -202.201 1065.51 -202.525C1007.16 -203.8 937.921 -214.062 868.681 -224.324C799.442 -234.586 731.154 -245.799 726.509 -191.466C721.865 -137.133 781.815 -18.2057 792.076 51.0337C803.289 119.322 763.863 138.873 724.437 158.424C685.01 177.975 646.535 196.575 592.202 201.22C537.869 205.864 468.63 195.602 440.092 224.14C410.604 253.629 420.865 322.868 406.283 367.263C391.701 411.659 353.226 430.258 338.644 474.654C324.061 519.049 334.323 588.288 295.848 606.888C256.421 626.439 167.307 596.302 127.88 615.853C89.4052 634.453 99.6671 703.692 104.322 738.788L109.929 772.932M1224.93 -395.069L1220.6 -370.863C1215.32 -345.705 1205.7 -296.341 1177.16 -267.803C1147.68 -238.315 1098.31 -228.701 1039.01 -229.025C980.66 -230.301 911.42 -240.562 842.181 -250.824C772.942 -261.086 704.654 -272.299 700.009 -217.966C695.364 -163.633 755.314 -44.7061 765.576 24.5333C776.789 92.8214 737.363 112.373 697.936 131.924C658.51 151.475 620.035 170.075 565.702 174.719C511.369 179.364 442.13 169.102 413.592 197.64C384.104 227.129 394.365 296.368 379.783 340.763C365.201 385.158 326.725 403.758 312.143 448.153C297.561 492.548 307.823 561.788 269.347 580.388C229.921 599.939 140.806 569.802 101.38 589.353C62.9048 607.953 73.1667 677.192 77.822 712.287L83.4285 746.431M1198.43 -421.569L1194.1 -397.363C1188.82 -372.205 1179.2 -322.841 1150.66 -294.304C1121.18 -264.815 1071.81 -255.202 1012.51 -255.526C954.159 -256.801 884.92 -267.063 815.681 -277.325C746.441 -287.586 678.153 -298.8 673.509 -244.467C668.864 -190.134 728.814 -71.2065 739.076 -1.9671C750.289 66.321 710.862 85.8721 671.436 105.423C632.009 124.974 593.534 143.574 539.201 148.219C484.868 152.863 415.629 142.602 387.092 171.139C357.603 200.628 367.865 269.867 353.282 314.262C338.7 358.658 300.225 377.258 285.643 421.653C271.06 466.048 281.322 535.287 242.847 553.887C203.421 573.438 114.306 543.301 74.8796 562.852C36.4045 581.452 46.6663 650.692 51.3216 685.787L56.9281 719.931M1174.41 -445.585L1170.08 -421.379C1164.8 -396.221 1155.19 -346.857 1126.65 -318.32C1097.16 -288.831 1047.8 -279.218 988.494 -279.542C930.143 -280.817 860.904 -291.079 791.665 -301.341C722.425 -311.602 654.137 -322.816 649.493 -268.483C644.848 -214.15 704.798 -95.2225 715.06 -25.9831C726.273 42.305 686.846 61.8561 647.42 81.4073C607.993 100.958 569.518 119.558 515.185 124.203C460.853 128.848 391.613 118.586 363.076 147.123C333.587 176.612 343.849 245.851 329.267 290.247C314.684 334.642 276.209 353.242 261.627 397.637C247.044 442.032 257.306 511.271 218.831 529.871C179.405 549.422 90.2903 519.286 50.8639 538.837C12.3887 557.437 22.6503 626.676 27.3056 661.771L32.9121 695.915M1152.88 -467.117L1148.55 -442.911C1143.27 -417.753 1133.65 -368.389 1105.12 -339.851C1075.63 -310.363 1026.26 -300.749 966.962 -301.073C908.612 -302.349 839.372 -312.61 770.133 -322.872C700.894 -333.134 632.606 -344.347 627.961 -290.014C623.316 -235.681 683.266 -116.754 693.528 -47.5146C704.741 20.7735 665.315 40.3246 625.888 59.8757C586.462 79.4268 547.987 98.027 493.654 102.672C439.321 107.316 370.082 97.0543 341.544 125.592C312.056 155.081 322.317 224.32 307.735 268.715C293.153 313.11 254.678 331.71 240.095 376.105C225.513 420.501 235.775 489.74 197.299 508.34C157.873 527.891 68.7587 497.754 29.3323 517.305C-9.14289 535.905 1.11877 605.144 5.77406 640.239L11.3806 674.383M1422.81 -177.68C1417.53 -152.522 1407.92 -103.158 1379.38 -74.6206C1349.89 -45.1319 1300.53 -35.5184 1241.23 -35.8426C1182.87 -37.1181 1113.64 -47.38 1044.4 -57.6418C975.157 -67.9037 906.868 -79.1167 902.224 -24.7838C897.579 29.5491 957.529 148.477 967.791 217.716C979.004 286.004 939.578 305.555 900.151 325.106C860.725 344.658 822.25 363.257 767.917 367.902C713.584 372.547 644.345 362.285 615.807 390.822C586.318 420.311 596.58 489.55 581.998 533.946C567.416 578.341 528.941 596.941 514.358 641.336C499.776 685.731 510.038 754.971 471.563 773.571C432.136 793.122 343.021 762.984 303.595 782.536M1457.86 -145.24C1452.58 -120.082 1442.97 -70.7178 1414.43 -42.1803C1384.94 -12.6915 1335.57 -3.07807 1276.27 -3.40226C1217.92 -4.6777 1148.68 -14.9395 1079.44 -25.2014C1010.2 -35.4632 941.916 -46.6763 937.272 7.65659C932.627 61.9895 992.577 180.917 1002.84 250.156C1014.05 318.445 974.626 337.996 935.199 357.547C895.773 377.098 857.298 395.698 802.965 400.342C748.632 404.987 679.392 394.725 650.855 423.263C621.366 452.751 631.628 521.991 617.046 566.386C602.463 610.781 563.988 629.381 549.406 673.776C534.824 718.172 545.086 787.411 506.61 806.011C467.184 825.562 378.069 795.425 338.643 814.976M1481.05 -118.74C1475.77 -93.5825 1466.15 -44.2184 1437.62 -15.6809C1408.13 13.8079 1358.76 23.4213 1299.46 23.0971C1241.11 21.8217 1171.87 11.5598 1102.63 1.298C1033.39 -8.96384 965.105 -20.1769 960.46 34.156C955.816 88.4889 1015.77 207.417 1026.03 276.656C1037.24 344.944 997.814 364.495 958.388 384.046C918.962 403.597 880.486 422.197 826.153 426.842C771.821 431.486 702.581 421.225 674.044 449.762C644.555 479.251 654.817 548.49 640.235 592.885C625.652 637.281 587.177 655.881 572.595 700.276C558.013 744.671 568.274 813.91 529.799 832.51C490.373 852.061 401.258 821.924 361.832 841.475" stroke="url(#paint0_linear_226_887)" stroke-opacity="0.7"/>
<defs>
<linearGradient id="paint0_linear_226_887" x1="862" y1="-311" x2="487.469" y2="272.867" gradientUnits="userSpaceOnUse">
<stop stop-color="#706876"/>
<stop offset="1" stop-color="#D9CACC" stop-opacity="0.12"/>
</linearGradient>
</defs>
</svg>
