<svg width="143" height="104" viewBox="0 0 143 104" fill="none" xmlns="http://www.w3.org/2000/svg">
<rect width="143" height="104" fill="#F5F5F5"/>
<g id="&#208;&#157;&#208;&#176;&#209;&#128;&#208;&#176;&#209;&#137;&#208;&#184;&#208;&#178;&#208;&#176;&#208;&#189;&#208;&#184;&#208;&#181; 4" clip-path="url(#clip0_0_1)">
<rect width="1920" height="6241" transform="translate(-349 -26)" fill="#B5BBCB"/>
<g id="Slide 16:9 - 16" clip-path="url(#clip1_0_1)">
<rect width="1920" height="932" transform="translate(-349 -26)" fill="url(#paint0_linear_0_1)"/>
<g id="header">
<g id="Logo" filter="url(#filter0_d_0_1)">
<g id="&#208;&#161;&#208;&#187;&#208;&#190;&#208;&#185; 1">
<g id="Group">
<path id="Vector" d="M115.391 18H23.6088C20.8952 18 18.6953 20.5034 18.6953 23.5915V76.4085C18.6953 79.4966 20.8952 82 23.6088 82H115.391C118.104 82 120.304 79.4966 120.304 76.4085V23.5915C120.304 20.5034 118.104 18 115.391 18Z" fill="#FCFAF8" fill-opacity="0.01"/>
<g id="Group_2">
<path id="Vector_2" d="M96.4172 70.7258V68.7073H97.3877V70.7258H96.4172Z" fill="#120E14"/>
<path id="Vector_3" d="M98.552 56.7595C98.552 55.4343 99.2497 54.7717 100.645 54.7717C102.041 54.7717 102.736 55.4651 102.736 56.8518V58.8395H101.765V56.8853C101.765 56.2758 101.692 55.8285 101.544 55.5461C101.397 55.2638 101.102 55.1212 100.657 55.1212C100.213 55.1212 99.913 55.2638 99.7558 55.5461C99.5986 55.8313 99.52 56.2758 99.52 56.8853V59.1554C99.52 59.7873 99.6133 60.2793 99.7976 60.6372C100.056 61.0985 100.375 61.5346 100.753 61.9456C101.132 62.3566 101.421 62.692 101.625 62.9548C101.829 63.2176 102.014 63.5168 102.181 63.8523C102.549 64.6099 102.736 65.4403 102.736 66.3433V68.8986C102.736 70.2238 102.038 70.8836 100.645 70.8836C99.2522 70.8836 98.552 70.1902 98.552 68.8035V66.6284H99.5224V68.7728C99.5224 69.3822 99.5961 69.8296 99.7435 70.1119C99.8909 70.3943 100.186 70.5369 100.63 70.5369C101.075 70.5369 101.375 70.3943 101.532 70.1119C101.689 69.8268 101.768 69.3822 101.768 68.7728V66.5641C101.768 65.239 101.48 64.1906 100.908 63.4106C100.724 63.1589 100.461 62.8542 100.119 62.4963C99.7779 62.1385 99.4315 61.7024 99.0802 61.1879C98.7289 60.6735 98.5545 60.0361 98.5545 59.2812V56.7595H98.552Z" fill="#120E14"/>
<path id="Vector_4" d="M108.028 68.9278C108.028 70.2306 107.308 70.8821 105.866 70.8821C105.441 70.8821 105.09 70.8205 104.812 70.6919V77.0299H103.842V54.9575H104.672V54.9883C105.024 54.7982 105.466 54.7031 106.001 54.7031C107.35 54.7031 108.023 55.3769 108.023 56.7216V68.925L108.028 68.9278ZM107.058 56.8503C107.058 56.2184 106.994 55.7823 106.864 55.5418C106.733 55.3014 106.453 55.1784 106.019 55.1784C105.584 55.1784 105.279 55.2735 105.105 55.4636C104.928 55.6537 104.832 56.0199 104.815 56.5679V68.7713C104.815 69.3807 104.879 69.8113 105.009 70.0629C105.139 70.3145 105.424 70.4403 105.869 70.4403C106.313 70.4403 106.62 70.3257 106.797 70.0937C106.972 69.8616 107.06 69.4423 107.06 68.8328V56.8503H107.058Z" fill="#120E14"/>
<path id="Vector_5" d="M113.347 68.9279C113.347 70.2307 112.649 70.8821 111.254 70.8821C109.859 70.8821 109.163 70.2111 109.163 68.8636V47.0764H110.134V54.9268C110.448 54.7815 110.844 54.706 111.325 54.706C112.674 54.706 113.347 55.3798 113.347 56.7245V68.9279ZM112.377 56.8503C112.377 56.2185 112.313 55.7823 112.183 55.5419C112.052 55.3015 111.772 55.1785 111.338 55.1785C110.903 55.1785 110.593 55.2735 110.409 55.4636C110.225 55.6537 110.131 56.0312 110.131 56.5987V68.7713C110.131 69.3808 110.195 69.8113 110.325 70.063C110.456 70.3146 110.741 70.4404 111.185 70.4404C111.63 70.4404 111.937 70.3258 112.114 70.0937C112.288 69.8617 112.377 69.4423 112.377 68.8328V56.8503Z" fill="#120E14"/>
</g>
<g id="Group_3">
<path id="Vector_6" d="M33.2711 29.4688L29.2494 70.5353H28.5271L24.9697 29.4688H26.773L29.3501 62.1481L32.5463 29.4688H33.2686H33.2711Z" fill="#120E14"/>
<path id="Vector_7" d="M48.1688 67.1923C48.1688 69.619 46.8716 70.8296 44.2773 70.8296C41.683 70.8296 40.3858 69.5771 40.3858 67.0749V32.7544C40.3858 30.3305 41.683 29.1172 44.2773 29.1172C46.8716 29.1172 48.1688 30.3697 48.1688 32.8719V67.1923ZM46.3655 33.1067C46.3655 31.9325 46.2452 31.1217 46.0044 30.6716C45.7636 30.2215 45.2305 29.9978 44.405 29.9978C43.5796 29.9978 43.0047 30.2019 42.678 30.6129C42.3512 31.0239 42.1891 31.7955 42.1891 32.9306V66.8988C42.1891 68.0338 42.3094 68.8334 42.5502 69.3031C42.791 69.7728 43.3241 70.0076 44.1471 70.0076C44.9701 70.0076 45.5474 69.7924 45.8742 69.3618C46.2009 68.9313 46.3631 68.1513 46.3631 67.0162V33.1067H46.3655Z" fill="#120E14"/>
<path id="Vector_8" d="M55.4355 29.4688H57.2388V69.6575H62.2407V70.5381H55.4355V29.4688Z" fill="#120E14"/>
<path id="Vector_9" d="M77.1384 67.1923C77.1384 69.619 75.8413 70.8296 73.247 70.8296C70.6526 70.8296 69.3555 69.5771 69.3555 67.0749V32.7544C69.3555 30.3305 70.6526 29.1172 73.247 29.1172C75.8413 29.1172 77.1384 30.3697 77.1384 32.8719V67.1923ZM75.3352 33.1067C75.3352 31.9325 75.2148 31.1217 74.9741 30.6716C74.7333 30.2215 74.2002 29.9978 73.3747 29.9978C72.5492 29.9978 71.9744 30.2019 71.6476 30.6129C71.3209 31.0239 71.1587 31.7955 71.1587 32.9306V66.8988C71.1587 68.0338 71.2791 68.8334 71.5199 69.3031C71.7606 69.7728 72.2937 70.0076 73.1168 70.0076C73.9398 70.0076 74.5171 69.7924 74.8438 69.3618C75.1706 68.9313 75.3327 68.1513 75.3327 67.0162V33.1067H75.3352Z" fill="#120E14"/>
<path id="Vector_10" d="M84.4599 32.8132C84.4599 30.3501 85.7571 29.1172 88.3514 29.1172C90.9457 29.1172 92.2429 30.4088 92.2429 32.9893V41.2032H90.4396V33.048C90.4396 31.9129 90.3021 31.0826 90.0269 30.5542C89.7517 30.0258 89.2014 29.763 88.3784 29.763C87.5554 29.763 86.9953 30.0258 86.7029 30.5542C86.4106 31.0826 86.2656 31.9129 86.2656 33.048V40.0877C86.2656 41.575 86.4376 42.6681 86.7815 43.3726C87.2631 44.4294 87.8551 45.3884 88.5602 46.2467C89.2653 47.1078 89.8058 47.8207 90.1841 48.3882C90.5625 48.9557 90.9064 49.6099 91.216 50.3536C91.9039 51.9975 92.2478 53.9321 92.2478 56.1603V67.1308C92.2478 69.5939 90.9506 70.8268 88.3563 70.8268C85.762 70.8268 84.4648 69.5351 84.4648 66.9547V58.7995H86.2681V66.896C86.2681 68.031 86.4056 68.8614 86.6808 69.3898C86.956 69.9182 87.5063 70.181 88.3293 70.181C89.1523 70.181 89.7124 69.9182 90.0048 69.3898C90.2971 68.8614 90.4421 68.031 90.4421 66.896V56.63C90.4421 54.4018 90.2701 52.8362 89.9262 51.936C89.4446 50.608 88.8526 49.4925 88.1475 48.5923C87.4424 47.6921 86.9019 46.9903 86.5236 46.4815C86.1452 45.9727 85.8013 45.4247 85.4917 44.8376C84.8038 43.4677 84.4599 41.9832 84.4599 40.3784V32.8104V32.8132Z" fill="#120E14"/>
</g>
</g>
</g>
</g>
</g>
</g>
</g>
<defs>
<filter id="filter0_d_0_1" x="-10" y="0" width="163" height="104" filterUnits="userSpaceOnUse" color-interpolation-filters="sRGB">
<feFlood flood-opacity="0" result="BackgroundImageFix"/>
<feColorMatrix in="SourceAlpha" type="matrix" values="0 0 0 0 0 0 0 0 0 0 0 0 0 0 0 0 0 0 127 0" result="hardAlpha"/>
<feOffset dx="2" dy="2"/>
<feGaussianBlur stdDeviation="10"/>
<feComposite in2="hardAlpha" operator="out"/>
<feColorMatrix type="matrix" values="0 0 0 0 0.0763701 0 0 0 0 0.0589344 0 0 0 0 0.111241 0 0 0 0.16 0"/>
<feBlend mode="normal" in2="BackgroundImageFix" result="effect1_dropShadow_0_1"/>
<feBlend mode="normal" in="SourceGraphic" in2="effect1_dropShadow_0_1" result="shape"/>
</filter>
<linearGradient id="paint0_linear_0_1" x1="960" y1="0" x2="960" y2="932" gradientUnits="userSpaceOnUse">
<stop stop-color="#E9D1CD"/>
<stop offset="1" stop-color="#B4BBCB"/>
</linearGradient>
<clipPath id="clip0_0_1">
<rect width="1920" height="6241" fill="white" transform="translate(-349 -26)"/>
</clipPath>
<clipPath id="clip1_0_1">
<rect width="1920" height="932" fill="white" transform="translate(-349 -26)"/>
</clipPath>
</defs>
</svg>
